<svg width="24" height="24" viewBox="0 0 24 24" fill="none" xmlns="http://www.w3.org/2000/svg">
<g id="shop">
<path id="shop_2" d="M4 4H6.90909L8.85818 13.7382C8.92469 14.073 9.10684 14.3738 9.37276 14.5879C9.63868 14.8019 9.97142 14.9156 10.3127 14.9091H17.3818C17.7231 14.9156 18.0559 14.8019 18.3218 14.5879C18.5877 14.3738 18.7699 14.073 18.8364 13.7382L20 7.63636H7.63636M10.5455 18.5455C10.5455 18.9471 10.2198 19.2727 9.81818 19.2727C9.41652 19.2727 9.09091 18.9471 9.09091 18.5455C9.09091 18.1438 9.41652 17.8182 9.81818 17.8182C10.2198 17.8182 10.5455 18.1438 10.5455 18.5455ZM18.5455 18.5455C18.5455 18.9471 18.2198 19.2727 17.8182 19.2727C17.4165 19.2727 17.0909 18.9471 17.0909 18.5455C17.0909 18.1438 17.4165 17.8182 17.8182 17.8182C18.2198 17.8182 18.5455 18.1438 18.5455 18.5455Z" stroke="white" stroke-linecap="round" stroke-linejoin="round"/>
</g>
</svg>
